<svg width="26" height="26" viewBox="0 0 26 26" fill="none" xmlns="http://www.w3.org/2000/svg">
<path d="M23.5808 3.35245C23.5745 2.68939 23.307 2.05556 22.8364 1.58839C22.3659 1.12122 21.7301 0.858354 21.067 0.856793L5.11742 0.806396C4.45502 0.806528 3.81969 1.06931 3.35074 1.53714C2.88178 2.00496 2.61746 2.63965 2.61572 3.30205V19.7556C2.61572 21.1314 3.73856 22.1747 5.11742 22.1747H18.7427L18.0876 19.9572L23.5808 24.9969V3.35245ZM16.558 16.6214C16.558 16.6214 16.1186 16.0978 15.7517 15.6478C17.3513 15.1972 17.9616 14.212 17.9616 14.212C17.5222 14.5034 17.0514 14.7443 16.558 14.9301C15.9883 15.1666 15.3952 15.3422 14.7886 15.4537C13.7433 15.6457 12.6715 15.6416 11.6277 15.4416C11.0137 15.3276 10.4128 15.152 9.83406 14.9175C9.5279 14.8002 9.23019 14.662 8.94305 14.5038C8.90626 14.4796 8.86997 14.4675 8.83318 14.4428C8.80849 14.4307 8.79639 14.4186 8.78279 14.4186C8.56306 14.2966 8.4411 14.2115 8.4411 14.2115C8.4411 14.2115 9.02671 15.1735 10.5769 15.6357C10.2105 16.0983 9.75897 16.634 9.75897 16.634C7.06224 16.5489 6.03717 14.7961 6.03717 14.7961C6.03717 10.9125 7.7945 7.75965 7.7945 7.75965C9.55184 6.45689 11.2114 6.49368 11.2114 6.49368L11.3334 6.63983C9.13657 7.26072 8.13619 8.22229 8.13619 8.22229C8.13619 8.22229 8.40431 8.07614 8.85586 7.88111C10.1616 7.3091 11.1993 7.16295 11.6277 7.11457C11.6961 7.10036 11.7655 7.0921 11.8353 7.08988C12.6531 6.98377 13.4806 6.97565 14.3002 7.06569C15.5872 7.21353 16.8341 7.60611 17.9737 8.22229C17.9737 8.22229 17.0096 7.30759 14.9347 6.68771L15.1056 6.49318C15.1056 6.49318 16.7772 6.45639 18.523 7.76116C18.523 7.76116 20.2803 10.914 20.2803 14.7976C20.2803 14.7835 19.2548 16.5363 16.558 16.6214Z" fill="#4B4B4B"/>
<path d="M10.8835 10.9866C10.188 10.9866 9.63867 11.5833 9.63867 12.3256C9.63867 13.068 10.2001 13.6647 10.8835 13.6647C11.579 13.6647 12.1283 13.0685 12.1283 12.3256C12.1409 11.5818 11.579 10.9866 10.8835 10.9866ZM15.3375 10.9866C14.6421 10.9866 14.0927 11.5833 14.0927 12.3256C14.0927 13.068 14.6542 13.6647 15.3375 13.6647C16.0335 13.6647 16.5824 13.0685 16.5824 12.3256C16.5824 11.5828 16.0214 10.9866 15.3375 10.9866Z" fill="#4B4B4B"/>
</svg>
