<svg width="28" height="26" viewBox="0 0 28 26" fill="none" xmlns="http://www.w3.org/2000/svg">
<path d="M19.0161 3.49399C20.3003 3.49771 21.5309 3.99451 22.4389 4.87588C23.347 5.75725 23.8589 6.95158 23.8627 8.19803V17.6051C23.8589 18.8516 23.347 20.0459 22.4389 20.9273C21.5309 21.8086 20.3003 22.3054 19.0161 22.3092H9.32398C8.03976 22.3054 6.80924 21.8086 5.90116 20.9273C4.99307 20.0459 4.48122 18.8516 4.47739 17.6051V8.19803C4.48122 6.95158 4.99307 5.75725 5.90116 4.87588C6.80924 3.99451 8.03976 3.49771 9.32398 3.49399H19.0161ZM19.0161 1.61267H9.32398C5.5922 1.61267 2.53906 4.57601 2.53906 8.19803V17.6051C2.53906 21.2271 5.5922 24.1905 9.32398 24.1905H19.0161C22.7479 24.1905 25.801 21.2271 25.801 17.6051V8.19803C25.801 4.57601 22.7479 1.61267 19.0161 1.61267Z" fill="#4B4B4B"/>
<path d="M20.4699 8.19808C20.1824 8.19808 19.9013 8.11532 19.6622 7.96026C19.4231 7.80521 19.2368 7.58482 19.1267 7.32698C19.0167 7.06913 18.9879 6.7854 19.044 6.51167C19.1001 6.23794 19.2386 5.98651 19.4419 5.78916C19.6452 5.59181 19.9043 5.45742 20.1863 5.40297C20.4683 5.34852 20.7606 5.37647 21.0263 5.48327C21.292 5.59007 21.519 5.77094 21.6788 6.003C21.8385 6.23505 21.9238 6.50788 21.9238 6.78697C21.9242 6.97239 21.8869 7.15606 21.814 7.32745C21.741 7.49883 21.634 7.65455 21.4989 7.78566C21.3638 7.91678 21.2034 8.0207 21.0268 8.09148C20.8502 8.16225 20.661 8.19848 20.4699 8.19808ZM14.17 9.13849C14.9368 9.13849 15.6864 9.35919 16.324 9.77269C16.9616 10.1862 17.4586 10.7739 17.752 11.4615C18.0455 12.1492 18.1223 12.9058 17.9727 13.6358C17.8231 14.3657 17.4538 15.0363 16.9116 15.5626C16.3693 16.0888 15.6785 16.4472 14.9264 16.5924C14.1743 16.7376 13.3947 16.6631 12.6863 16.3783C11.9778 16.0935 11.3723 15.6111 10.9462 14.9923C10.5202 14.3735 10.2928 13.6459 10.2928 12.9016C10.2939 11.9039 10.7028 10.9474 11.4296 10.2419C12.1565 9.53637 13.142 9.13955 14.17 9.13849ZM14.17 7.25717C13.0198 7.25717 11.8954 7.58821 10.9391 8.20843C9.98272 8.82865 9.23733 9.71019 8.79717 10.7416C8.35701 11.773 8.24185 12.9079 8.46624 14.0028C8.69063 15.0977 9.2445 16.1035 10.0578 16.8928C10.8711 17.6822 11.9073 18.2198 13.0354 18.4376C14.1635 18.6554 15.3328 18.5436 16.3955 18.1164C17.4581 17.6892 18.3664 16.9657 19.0054 16.0375C19.6444 15.1093 19.9855 14.018 19.9855 12.9016C19.9855 11.4046 19.3728 9.96893 18.2822 8.91039C17.1915 7.85185 15.7123 7.25717 14.17 7.25717Z" fill="#4B4B4B"/>
</svg>
