<svg width="216" height="42" viewBox="0 0 216 42" fill="none" xmlns="http://www.w3.org/2000/svg">
<path d="M63.048 15.848V18.608H68.448V22.184H63.048V25.232H69.168V29H58.344V12.08H69.168V15.848H63.048ZM77.8764 29.168C75.9084 29.168 74.2924 28.704 73.0284 27.776C71.7644 26.832 71.0844 25.488 70.9884 23.744H76.0044C76.0524 24.336 76.2284 24.768 76.5324 25.04C76.8364 25.312 77.2284 25.448 77.7084 25.448C78.1404 25.448 78.4924 25.344 78.7644 25.136C79.0524 24.912 79.1964 24.608 79.1964 24.224C79.1964 23.728 78.9644 23.344 78.5004 23.072C78.0364 22.8 77.2844 22.496 76.2444 22.16C75.1404 21.792 74.2444 21.44 73.5564 21.104C72.8844 20.752 72.2924 20.248 71.7804 19.592C71.2844 18.92 71.0364 18.048 71.0364 16.976C71.0364 15.888 71.3084 14.96 71.8524 14.192C72.3964 13.408 73.1484 12.816 74.1084 12.416C75.0684 12.016 76.1564 11.816 77.3724 11.816C79.3404 11.816 80.9084 12.28 82.0764 13.208C83.2604 14.12 83.8924 15.408 83.9724 17.072H78.8604C78.8444 16.56 78.6844 16.176 78.3804 15.92C78.0924 15.664 77.7164 15.536 77.2524 15.536C76.9004 15.536 76.6124 15.64 76.3884 15.848C76.1644 16.056 76.0524 16.352 76.0524 16.736C76.0524 17.056 76.1724 17.336 76.4124 17.576C76.6684 17.8 76.9804 18 77.3484 18.176C77.7164 18.336 78.2604 18.544 78.9804 18.8C80.0524 19.168 80.9324 19.536 81.6204 19.904C82.3244 20.256 82.9244 20.76 83.4204 21.416C83.9324 22.056 84.1884 22.872 84.1884 23.864C84.1884 24.872 83.9324 25.776 83.4204 26.576C82.9244 27.376 82.1964 28.008 81.2364 28.472C80.2924 28.936 79.1724 29.168 77.8764 29.168ZM99.1193 12.08V15.824H94.6073V29H89.9033V15.824H85.4393V12.08H99.1193ZM105.564 15.848V18.608H110.964V22.184H105.564V25.232H111.684V29H100.86V12.08H111.684V15.848H105.564ZM118.712 15.848V18.608H124.112V22.184H118.712V25.232H124.832V29H114.008V12.08H124.832V15.848H118.712ZM146.909 12.08V29H142.205V19.664L139.013 29H135.077L131.861 19.592V29H127.157V12.08H132.845L137.093 23.072L141.245 12.08H146.909ZM153.604 20.504C153.604 18.84 153.948 17.36 154.636 16.064C155.34 14.752 156.332 13.736 157.612 13.016C158.892 12.28 160.364 11.912 162.028 11.912C164.14 11.912 165.916 12.48 167.356 13.616C168.796 14.736 169.724 16.264 170.14 18.2H165.076C164.772 17.56 164.348 17.072 163.804 16.736C163.276 16.4 162.66 16.232 161.956 16.232C160.868 16.232 159.996 16.624 159.34 17.408C158.7 18.176 158.38 19.208 158.38 20.504C158.38 21.816 158.7 22.864 159.34 23.648C159.996 24.416 160.868 24.8 161.956 24.8C162.66 24.8 163.276 24.632 163.804 24.296C164.348 23.96 164.772 23.472 165.076 22.832H170.14C169.724 24.768 168.796 26.304 167.356 27.44C165.916 28.56 164.14 29.12 162.028 29.12C160.364 29.12 158.892 28.76 157.612 28.04C156.332 27.304 155.34 26.288 154.636 24.992C153.948 23.68 153.604 22.184 153.604 20.504ZM177.071 25.4H182.327V29H172.367V12.08H177.071V25.4ZM188.765 12.08V21.896C188.765 22.808 188.973 23.512 189.389 24.008C189.821 24.504 190.469 24.752 191.333 24.752C192.197 24.752 192.845 24.504 193.277 24.008C193.725 23.496 193.949 22.792 193.949 21.896V12.08H198.653V21.896C198.653 23.448 198.325 24.776 197.669 25.88C197.013 26.968 196.117 27.792 194.981 28.352C193.861 28.896 192.613 29.168 191.237 29.168C189.861 29.168 188.629 28.896 187.541 28.352C186.469 27.792 185.621 26.968 184.997 25.88C184.389 24.792 184.085 23.464 184.085 21.896V12.08H188.765ZM212.042 20.312C213.034 20.536 213.818 21.032 214.394 21.8C214.986 22.552 215.282 23.416 215.282 24.392C215.282 25.832 214.786 26.96 213.794 27.776C212.802 28.592 211.41 29 209.618 29H201.242V12.08H209.354C211.082 12.08 212.434 12.464 213.41 13.232C214.402 14 214.898 15.08 214.898 16.472C214.898 17.464 214.634 18.296 214.106 18.968C213.594 19.624 212.906 20.072 212.042 20.312ZM205.946 18.8H208.322C209.506 18.8 210.098 18.312 210.098 17.336C210.098 16.328 209.506 15.824 208.322 15.824H205.946V18.8ZM208.682 25.208C209.866 25.208 210.458 24.712 210.458 23.72C210.458 23.208 210.298 22.816 209.978 22.544C209.674 22.272 209.234 22.136 208.658 22.136H205.946V25.208H208.682Z" fill="black"/>
<path d="M21 42C32.598 42 42 32.598 42 21C42 9.40202 32.598 0 21 0C9.40202 0 0 9.40202 0 21C0 32.598 9.40202 42 21 42Z" fill="#831618"/>
<path d="M34.7917 9.95567V33.1218C34.7917 33.6375 34.5868 34.1321 34.2222 34.4967C33.8575 34.8614 33.363 35.0662 32.8473 35.0662V35.0662C32.3316 35.0662 31.837 34.8614 31.4723 34.4967C31.1077 34.1321 30.9028 33.6375 30.9028 33.1218V13.8446C30.9028 13.3289 30.6979 12.8343 30.3333 12.4696C29.9686 12.105 29.4741 11.9001 28.9584 11.9001H28.7289C28.2132 11.9001 27.7186 12.105 27.354 12.4696C26.9893 12.8343 26.7845 13.3289 26.7845 13.8446V33.1218C26.7845 33.6375 26.5796 34.1321 26.215 34.4967C25.8503 34.8614 25.3557 35.0662 24.84 35.0662V35.0662C24.3243 35.0662 23.8298 34.8614 23.4651 34.4967C23.1004 34.1321 22.8956 33.6375 22.8956 33.1218V13.8446C22.8956 13.3289 22.6907 12.8343 22.3261 12.4696C21.9614 12.105 21.4668 11.9001 20.9511 11.9001H12.4734C11.9577 11.9001 11.4631 12.105 11.0984 12.4696C10.7338 12.8343 10.5289 13.3289 10.5289 13.8446V17.2201C10.5289 17.7358 10.7338 18.2304 11.0984 18.595C11.4631 18.9597 11.9577 19.1646 12.4734 19.1646H16.5695C17.0852 19.1646 17.5798 19.3694 17.9445 19.7341C18.3091 20.0987 18.514 20.5933 18.514 21.109V33.1214C18.514 33.6371 18.3091 34.1317 17.9445 34.4963C17.5798 34.861 17.0852 35.0658 16.5695 35.0658H8.58409C8.06839 35.0658 7.57382 34.861 7.20916 34.4963C6.84451 34.1317 6.63965 33.6371 6.63965 33.1214V33.1214C6.63965 32.6057 6.84451 32.1111 7.20916 31.7465C7.57382 31.3818 8.06839 31.177 8.58409 31.177H12.6806C12.936 31.177 13.1888 31.1267 13.4248 31.0289C13.6607 30.9312 13.875 30.788 14.0556 30.6074C14.2361 30.4269 14.3794 30.2125 14.4771 29.9766C14.5748 29.7407 14.6251 29.4879 14.6251 29.2325V24.9979C14.6251 24.4822 14.4202 23.9876 14.0556 23.623C13.6909 23.2583 13.1963 23.0535 12.6806 23.0535H8.58409C8.06839 23.0535 7.57382 22.8486 7.20916 22.4839C6.84451 22.1193 6.63965 21.6247 6.63965 21.109V9.95567C6.63965 9.43998 6.84451 8.9454 7.20916 8.58074C7.57382 8.21609 8.06839 8.01123 8.58409 8.01123H32.8473C33.363 8.01123 33.8575 8.21609 34.2222 8.58074C34.5868 8.9454 34.7917 9.43998 34.7917 9.95567V9.95567Z" fill="white"/>
</svg>
