<svg width="28" height="26" viewBox="0 0 28 26" fill="none" xmlns="http://www.w3.org/2000/svg">
<path d="M26.2912 5.51841C25.3563 5.91269 24.3671 6.17245 23.3549 6.28948C24.4187 5.68491 25.2186 4.72444 25.6048 3.58821C24.5991 4.159 23.5006 4.55949 22.3564 4.77253C21.8746 4.28244 21.2952 3.89256 20.6533 3.62658C20.0114 3.36061 19.3205 3.2241 18.6226 3.22535C15.7968 3.22535 13.5101 5.41257 13.5101 8.1088C13.5081 8.48384 13.5524 8.85776 13.642 9.22258C11.6158 9.13038 9.63166 8.62869 7.81663 7.7496C6.00161 6.87052 4.39562 5.63339 3.10142 4.11737C2.64738 4.86028 2.40726 5.70792 2.40616 6.5717C2.40616 8.26504 3.31639 9.76182 4.69081 10.6387C3.8765 10.62 3.07888 10.4108 2.36566 10.0289V10.0894C2.36566 12.4581 4.13107 14.4286 6.46765 14.8771C6.02826 14.9908 5.57548 15.0484 5.12075 15.0485C4.79808 15.049 4.47614 15.0186 4.15963 14.9577C4.8092 16.898 6.69976 18.3091 8.93924 18.3494C7.1195 19.7106 4.88533 20.4463 2.58789 20.4409C2.18009 20.4403 1.77267 20.4168 1.36768 20.3704C3.70487 21.8189 6.42167 22.5851 9.19471 22.5777C18.6116 22.5777 23.7563 15.1341 23.7563 8.67829C23.7563 8.46662 23.7506 8.25496 23.7402 8.04833C24.7387 7.35893 25.6026 6.50221 26.2912 5.51841Z" fill="#4B4B4B"/>
</svg>
